<svg xmlns="http://www.w3.org/2000/svg" xmlns:xlink="http://www.w3.org/1999/xlink" width="500" zoomAndPan="magnify" viewBox="0 0 375 374.999991" height="500" preserveAspectRatio="xMidYMid meet" version="1.0"><defs><g/><clipPath id="622e57bad9"><path d="M 75 0 L 300 0 C 341.421875 0 375 33.578125 375 75 L 375 300 C 375 341.421875 341.421875 375 300 375 L 75 375 C 33.578125 375 0 341.421875 0 300 L 0 75 C 0 33.578125 33.578125 0 75 0 Z M 75 0 " clip-rule="nonzero"/></clipPath></defs><g clip-path="url(#622e57bad9)"><rect x="-37.5" width="450" fill="#1e3650" y="-37.499999" height="449.999989" fill-opacity="1"/></g><g fill="#ffffff" fill-opacity="1"><g transform="translate(115.337767, 284.667362)"><g><path d="M 17.703125 -190.5 C 17.703125 -198.894531 19.898438 -204.742188 24.296875 -208.046875 C 28.703125 -211.347656 33.503906 -213 38.703125 -213 C 41.296875 -213 43.894531 -212.597656 46.5 -211.796875 C 49.101562 -210.992188 51.40625 -209.742188 53.40625 -208.046875 C 55.40625 -206.347656 57.003906 -204.046875 58.203125 -201.140625 C 59.398438 -198.242188 60 -194.695312 60 -190.5 L 60 -35.703125 L 127.796875 -35.703125 C 135.203125 -35.703125 140.503906 -34 143.703125 -30.59375 C 146.898438 -27.195312 148.5 -22.898438 148.5 -17.703125 C 148.5 -12.503906 146.898438 -8.253906 143.703125 -4.953125 C 140.503906 -1.648438 135.203125 0 127.796875 0 L 48 0 C 36.601562 0 28.703125 -2.25 24.296875 -6.75 C 19.898438 -11.25 17.703125 -19.195312 17.703125 -30.59375 Z M 17.703125 -190.5 "/></g></g></g></svg>