<svg class="absolute duration-300 ease-in-out group-hover:opacity-0" width="20" height="21" viewBox="0 0 20 21" fill="none" xmlns="http://www.w3.org/2000/svg" data-phx-id="m7-phx-GB20dogWnBvC2EzC">
  <g clippath="url(#clip0_527_169)">
    <path d="M19.5326 11.1619C19.5326 10.3425 19.4662 9.74459 19.3223 9.12451H9.96562V12.8228H15.4578C15.3471 13.7419 14.7491 15.126 13.4204 16.0561L13.4017 16.1799L16.3601 18.4718L16.5651 18.4922C18.4475 16.7537 19.5326 14.1959 19.5326 11.1619Z" fill="#4285F4"></path>
    <path d="M9.96564 20.906C12.6563 20.906 14.9152 20.0202 16.5651 18.4921L13.4204 16.056C12.5789 16.6429 11.4494 17.0526 9.96564 17.0526C7.3303 17.0526 5.09358 15.3142 4.29626 12.9114L4.17939 12.9213L1.1032 15.302L1.06297 15.4138C2.70175 18.6692 6.06793 20.906 9.96564 20.906Z" fill="#34A853"></path>
    <path d="M4.29626 12.9114C4.08588 12.2914 3.96412 11.6269 3.96412 10.9404C3.96412 10.2539 4.08588 9.58953 4.28519 8.96945L4.27962 8.83739L1.16489 6.41846L1.06298 6.46693C0.387557 7.81785 0 9.33487 0 10.9404C0 12.546 0.387557 14.063 1.06298 15.4139L4.29626 12.9114Z" fill="#FBBC05"></path>
    <path d="M9.96564 4.82821C11.8369 4.82821 13.0992 5.63653 13.819 6.31203L16.6315 3.56592C14.9042 1.96035 12.6563 0.974854 9.96564 0.974854C6.06793 0.974854 2.70175 3.21157 1.06297 6.46699L4.28519 8.96951C5.09358 6.56669 7.3303 4.82821 9.96564 4.82821Z" fill="#EB4335"></path>
  </g>
  <defs>
    <clipPath id="clip0_527_169">
      <rect width="20" height="20" fill="white" transform="translate(0 0.974854)"></rect>
    </clipPath>
  </defs>
</svg>