<svg width="60" height="60" viewBox="0 0 60 60" fill="none" xmlns="http://www.w3.org/2000/svg">
<g clip-path="url(#clip0_470_164)">
<path d="M0 30C0 46.5685 13.4315 60 30 60C46.5685 60 60 46.5685 60 30C60 13.4315 46.5685 0 30 0C13.4315 0 0 13.4315 0 30Z" fill="#FDE100"/>
<path fill-rule="evenodd" clip-rule="evenodd" d="M12 24.6667L19.2848 29.5278L28.0348 23.6945L24.3924 21.2571L29.1303 18.1077L39.3318 24.9132L22.5712 36.0869L26.2136 38.5243L47 24.6667L29.5 13L12 24.6667ZM47 36.3334L39.7016 31.4723L30.9515 37.3056L34.5939 39.7292L29.856 42.8924L19.6545 36.0869L36.4151 24.9132L32.7727 22.4758L12 36.3334L29.5 48L47 36.3334ZM47 17.8611L43.3439 20.2986L39.7016 17.8611L47 13V17.8611ZM12 43.1389L15.6424 40.7015L19.2848 43.1389L12 48V43.1389Z" fill="#003882"/>
</g>
<defs>
<clipPath id="clip0_470_164">
<rect width="60" height="60" fill="white"/>
</clipPath>
</defs>
</svg>
