<svg width="60" height="60" viewBox="0 0 60 60" fill="none" xmlns="http://www.w3.org/2000/svg">
<rect width="60" height="60" rx="30" fill="#000051"/>
<path d="M40.9332 21.639L36.6776 14.1916C36.262 13.4568 35.4703 13 34.639 13H26.1279C25.2768 13 24.5049 13.4568 24.0892 14.1916L19.8337 21.639C19.418 22.3738 19.418 23.2874 19.8337 24.0222L24.0892 31.4696C24.5049 32.2044 25.2966 32.6612 26.1279 32.6612H29.2156L30.3834 30.6156H26.1279C26.0092 30.6156 25.8904 30.5561 25.831 30.4369L21.5755 22.9895C21.5161 22.8902 21.5161 22.7512 21.5755 22.6519L25.831 15.2044C25.8904 15.1051 26.0092 15.0257 26.1279 15.0257H34.639C34.7577 15.0257 34.8765 15.0853 34.9359 15.2044L39.1914 22.6519C39.2508 22.7512 39.2508 22.8902 39.1914 22.9895L36.7172 27.3189H39.0528L40.953 24.0222C41.3686 23.2874 41.3686 22.3738 40.9332 21.639Z" fill="#0788FE"/>
<path d="M33.431 35.9579L31.5309 32.6612H29.1953L31.6694 36.9906C31.7288 37.0899 31.7288 37.2289 31.6694 37.3282L27.4139 44.7756C27.3545 44.8749 27.2358 44.9544 27.117 44.9544H18.606C18.4872 44.9544 18.3684 44.8948 18.3091 44.7756L14.0535 37.3282C13.9942 37.2289 13.9942 37.0899 14.0535 36.9906L18.3091 29.5432C18.3684 29.4439 18.4872 29.3644 18.606 29.3644H22.8615L21.6937 27.3189H18.6257C17.7746 27.3189 17.0027 27.7757 16.5871 28.5105L12.3117 35.9579C11.8961 36.6927 11.8961 37.6063 12.3117 38.3411L16.5673 45.7885C16.9829 46.5233 17.7746 46.9801 18.606 46.9801H27.117C27.9681 46.9801 28.74 46.5233 29.1557 45.7885L33.4112 38.3411C33.8665 37.6063 33.8665 36.6927 33.431 35.9579Z" fill="#A06FFE"/>
<path d="M48.4341 35.958L44.1786 28.5304C43.7629 27.7956 42.9712 27.3388 42.1399 27.3388H33.6288C32.7777 27.3388 32.0058 27.7956 31.5902 28.5304L29.215 32.6612H31.5506L33.332 29.5432C33.3913 29.4439 33.5101 29.3645 33.6288 29.3645H42.1399C42.2587 29.3645 42.3774 29.4241 42.4368 29.5432L46.6923 36.9907C46.7517 37.09 46.7517 37.229 46.6923 37.3283L42.4368 44.7757C42.3774 44.875 42.2587 44.9545 42.1399 44.9545H33.6288C33.5101 44.9545 33.3913 44.8949 33.332 44.7757L31.5506 41.6776L30.3828 43.7231L31.5902 45.8084C32.0058 46.5432 32.7975 47 33.6288 47H42.1399C42.991 47 43.7629 46.5432 44.1786 45.8084L48.4341 38.361C48.8696 37.6063 48.8696 36.6928 48.4341 35.958Z" fill="#00D9CB"/>
</svg>
