<svg width="60" height="60" viewBox="0 0 60 60" fill="none" xmlns="http://www.w3.org/2000/svg">
<rect width="60" height="60" rx="30" fill="url(#paint0_linear_472_27)"/>
<path d="M29.2703 38.0968L26.9486 39.4184C26.6169 39.5836 26.6169 39.7488 26.6169 40.0792V48.5044C26.6169 48.8348 26.7828 49 26.9486 49H29.2703V38.0968ZM33.5821 35.6188L30.597 37.2708H30.4312V48.6696H33.7479C33.9239 48.6696 34.0926 48.6 34.217 48.4761C34.3414 48.3521 34.4113 48.1841 34.4113 48.0088V36.1144C34.4445 36.0083 34.441 35.8942 34.4013 35.7903C34.3616 35.6865 34.288 35.5989 34.1923 35.5418C34.0967 35.4846 33.9845 35.4611 33.8738 35.4751C33.7632 35.489 33.6604 35.5396 33.5821 35.6188ZM28.9386 19.0987C26.4905 19.08 24.0464 19.3013 21.6418 19.7595C22.929 18.0924 24.5882 16.7468 26.488 15.8292C28.3878 14.9117 30.4759 14.4474 32.5871 14.4731C35.8165 14.4731 38.9588 15.5165 41.5423 17.4467C41.874 17.7771 42.2056 17.9423 42.5373 17.6119C42.6079 17.5499 42.6644 17.4736 42.7032 17.3882C42.7419 17.3027 42.7619 17.2101 42.7619 17.1163C42.7619 17.0226 42.7419 16.9299 42.7032 16.8444C42.6644 16.759 42.6079 16.6827 42.5373 16.6207C41.0535 14.8185 39.1775 13.3762 37.0513 12.4031C34.9252 11.4299 32.6046 10.9515 30.2653 11.0039C27.1262 11.0603 24.0756 12.0497 21.5049 13.8453C18.9342 15.6408 16.9606 18.1605 15.8375 21.0811L10.5307 23.2287C10.0884 23.5591 9.92261 23.8895 10.0332 24.2199C10.0667 24.3151 10.1216 24.4014 10.1937 24.4721C10.2659 24.5429 10.3533 24.5962 10.4494 24.6281C10.5454 24.66 10.6475 24.6696 10.7478 24.6561C10.8482 24.6426 10.9441 24.6064 11.0282 24.5503C12.3851 24.1235 13.7705 23.7923 15.1741 23.5591C15.0297 24.3211 14.9741 25.0972 15.0083 25.8719C14.9636 28.4984 15.5957 31.0923 16.8441 33.4061C18.0925 35.7198 19.9157 37.6761 22.1393 39.088C22.471 39.2532 22.9685 39.2532 23.1343 38.9228C23.3002 38.5924 23.3002 38.262 22.9685 37.9316C21.5811 36.6818 20.4785 35.1505 19.7348 33.4408C18.991 31.7311 18.6234 29.8826 18.6567 28.0195C18.6053 26.2424 19.0045 24.481 19.8176 22.8983L24.461 22.5679C35.738 22.5679 45.3565 26.3675 45.3565 31.1583C45.3565 35.9492 42.2056 36.1144 38.3914 37.7664C37.5622 38.0968 37.5622 38.4272 37.5622 38.7576C37.5622 39.088 38.0597 39.2532 38.5572 39.088C45.1907 37.1056 50 33.4712 50 29.3411C50 25.2111 40.7131 19.0987 28.9386 19.0987Z" fill="white"/>
<defs>
<linearGradient id="paint0_linear_472_27" x1="0" y1="30" x2="60" y2="30" gradientUnits="userSpaceOnUse">
<stop stop-color="#CC092F"/>
<stop offset="0.4" stop-color="#CC092F"/>
<stop offset="0.9" stop-color="#B81570"/>
<stop offset="1" stop-color="#B81570"/>
</linearGradient>
</defs>
</svg>
