<svg width="60" height="60" viewBox="0 0 60 60" fill="none" xmlns="http://www.w3.org/2000/svg">
<rect width="60" height="60" rx="30" fill="#001E61"/>
<path fill-rule="evenodd" clip-rule="evenodd" d="M38.8447 28.8614L39.271 26.7174H35.6017V23.7886L33.026 24.1904V32.9385C33.026 35.9628 34.1747 36.8628 37.3064 36.8628H38.6775L39.104 34.7377H37.4916C36.065 34.7377 35.6015 34.3745 35.6015 32.7661V28.8614H38.8447ZM21.148 22.7738V32.1731C21.148 35.6571 22.7043 37.1118 26.0956 37.1118C29.6163 37.1118 31.1729 35.6954 31.1729 32.192V31.2925C31.1729 28 29.7273 26.3918 26.5773 26.3918C25.5765 26.3918 24.4832 26.6023 23.7419 27.1956V22.3526L21.148 22.7738ZM26.1881 28.4973C27.967 28.4973 28.5972 29.2249 28.5972 31.3878V32.192C28.5972 34.2974 27.967 35.0253 26.1511 35.0253C24.3352 35.0253 23.7047 34.2974 23.7047 32.1728V31.0818C23.7047 29.1483 24.3352 28.4973 26.1881 28.4973ZM45.0709 26.3918C41.6797 26.3918 40.1231 27.8657 40.1231 31.2348V31.7517C40.1231 34.9484 41.4759 36.4989 44.6629 36.4989C45.6822 36.4989 46.7015 36.3078 47.4241 35.7141V36.0974C47.4241 37.8968 46.6645 38.4897 44.8854 38.4897H43.8203C43.2115 38.5008 42.9348 38.6126 42.5679 39.2339L42.5658 39.233C39.5104 44.2282 34.2058 47.2799 28.4248 47.2799C19.201 47.2799 11.6971 39.5285 11.6971 29.9999C11.6971 20.4715 19.201 12.7201 28.4248 12.7201C34.9038 12.7201 40.7978 16.596 43.5554 22.6278H44.324C41.5136 16.169 35.2833 12 28.4248 12C18.8169 12 11 20.0748 11 29.9999C11 39.9252 18.8169 48 28.4248 48C34.0754 48 39.2899 45.2014 42.5408 40.557H45.0337C48.3136 40.557 50 39.2747 50 36.0014V31.0626C50 27.8082 48.3879 26.3918 45.0709 26.3918ZM47.4428 32.0771C47.4428 33.8765 46.8313 34.4315 45.0711 34.4315C43.088 34.4315 42.699 33.7233 42.699 31.637V31.3116C42.699 29.2438 43.051 28.4973 45.0709 28.4973C47.0536 28.4973 47.4428 29.2249 47.4428 31.3306V32.0771Z" fill="white"/>
</svg>
