<svg width="60" height="60" viewBox="0 0 60 60" fill="none" xmlns="http://www.w3.org/2000/svg">
<g clip-path="url(#clip0_470_137)">
<path d="M0 30C0 46.5685 13.4315 60 30 60C46.5685 60 60 46.5685 60 30C60 13.4315 46.5685 0 30 0C13.4315 0 0 13.4315 0 30Z" fill="#0070AF"/>
<path fill-rule="evenodd" clip-rule="evenodd" d="M22.6585 31.7805H36.8423L46.561 48H32.3749L22.6585 31.7805Z" fill="white"/>
<path fill-rule="evenodd" clip-rule="evenodd" d="M24.3658 29.2195H38.9857L51.6829 13H37.0631L24.3658 29.2195Z" fill="#F6822A"/>
<path fill-rule="evenodd" clip-rule="evenodd" d="M9 48H24.0756L37.1707 31.7805H22.0928L9 48Z" fill="#F6822A"/>
<path fill-rule="evenodd" clip-rule="evenodd" d="M14.9756 13H28.6528L38.0244 29.2195H24.3448L14.9756 13Z" fill="white"/>
</g>
<defs>
<clipPath id="clip0_470_137">
<rect width="60" height="60" fill="white"/>
</clipPath>
</defs>
</svg>
