<svg width="60" height="60" viewBox="0 0 60 60" fill="none" xmlns="http://www.w3.org/2000/svg">
<rect width="60" height="60" rx="30" fill="#E2E8F0"/>
<path d="M36.4 29.6842C36.8533 29.6842 37.2333 29.5279 37.54 29.2151C37.8467 28.9024 38 28.5149 38 28.0526C38 27.5904 37.8467 27.2029 37.54 26.8901C37.2333 26.5774 36.8533 26.4211 36.4 26.4211C35.9467 26.4211 35.5667 26.5774 35.26 26.8901C34.9533 27.2029 34.8 27.5904 34.8 28.0526C34.8 28.5149 34.9533 28.9024 35.26 29.2151C35.5667 29.5279 35.9467 29.6842 36.4 29.6842ZM23.6 26.4211H31.6V23.1579H23.6V26.4211ZM18 46C17.0933 42.9 16.2 39.8068 15.32 36.7204C14.44 33.634 14 30.4728 14 27.2368C14 24.7351 14.8533 22.614 16.56 20.8737C18.2667 19.1333 20.3467 18.2632 22.8 18.2632H30.8C31.5733 17.2298 32.5133 16.4276 33.62 15.8566C34.7267 15.2855 35.92 15 37.2 15C37.8667 15 38.4333 15.2379 38.9 15.7138C39.3667 16.1897 39.6 16.7675 39.6 17.4474C39.6 17.5833 39.5333 17.8961 39.4 18.3855C39.2933 18.6846 39.1933 18.9906 39.1 19.3033C39.0067 19.616 38.9333 19.9355 38.88 20.2618L42.52 23.9737H46V35.3539L41.48 36.8632L38.8 46H30V42.7368H26.8V46H18Z" fill="#1E293B"/>
</svg>
