<svg width="60" height="60" viewBox="0 0 60 60" fill="none" xmlns="http://www.w3.org/2000/svg">
<rect width="60" height="60" rx="30" fill="#E2E8F0"/>
<path d="M20.0833 43.75C19.2354 43.75 18.5095 43.4481 17.9057 42.8443C17.3019 42.2405 17 41.5146 17 40.6667V19.0833C17 18.2354 17.3019 17.5095 17.9057 16.9057C18.5095 16.3019 19.2354 16 20.0833 16H41.6667C42.5146 16 43.2404 16.3019 43.8443 16.9057C44.4481 17.5095 44.75 18.2354 44.75 19.0833H32.4167C30.5924 19.0833 29.1085 19.655 27.9651 20.7984C26.8217 21.9418 26.25 23.4257 26.25 25.25V34.5C26.25 36.3243 26.8217 37.8082 27.9651 38.9516C29.1085 40.095 30.5924 40.6667 32.4167 40.6667H44.75C44.75 41.5146 44.4481 42.2405 43.8443 42.8443C43.2404 43.4481 42.5146 43.75 41.6667 43.75H20.0833ZM32.4167 37.5833C31.5687 37.5833 30.8429 37.2814 30.2391 36.6776C29.6352 36.0738 29.3333 35.3479 29.3333 34.5V25.25C29.3333 24.4021 29.6352 23.6762 30.2391 23.0724C30.8429 22.4686 31.5687 22.1667 32.4167 22.1667H43.2083C44.0562 22.1667 44.7821 22.4686 45.3859 23.0724C45.9898 23.6762 46.2917 24.4021 46.2917 25.25V34.5C46.2917 35.3479 45.9898 36.0738 45.3859 36.6776C44.7821 37.2814 44.0562 37.5833 43.2083 37.5833H32.4167ZM37.0417 32.1875C37.7097 32.1875 38.2622 31.9691 38.699 31.5323C39.1358 31.0955 39.3542 30.5431 39.3542 29.875C39.3542 29.2069 39.1358 28.6545 38.699 28.2177C38.2622 27.7809 37.7097 27.5625 37.0417 27.5625C36.3736 27.5625 35.8212 27.7809 35.3844 28.2177C34.9476 28.6545 34.7292 29.2069 34.7292 29.875C34.7292 30.5431 34.9476 31.0955 35.3844 31.5323C35.8212 31.9691 36.3736 32.1875 37.0417 32.1875Z" fill="#1E293B"/>
</svg>
