<svg width="60" height="60" viewBox="0 0 60 60" fill="none" xmlns="http://www.w3.org/2000/svg">
<rect width="60" height="60" rx="30" fill="#FF6200"/>
<path d="M27.6517 12.0228C26.6154 12.0474 25.8551 12.0838 24.4614 12.1698C23.8168 12.2082 23.1131 12.2649 22.6175 12.3145C22.4932 12.328 22.233 12.3529 22.0407 12.3711C21.233 12.4504 20.0337 12.6017 19.5293 12.6878C19.4228 12.7059 19.2667 12.7309 19.1787 12.7444C19.0927 12.7558 18.9387 12.7828 18.8392 12.801C18.7397 12.8192 18.5722 12.8509 18.466 12.8688C18.0925 12.9322 17.4569 13.0613 17.0972 13.1473C16.9974 13.1722 16.8188 13.215 16.7011 13.2424C16.5834 13.2694 16.4773 13.2943 16.4638 13.2966C15.8006 13.4548 15.1422 13.7741 14.6355 14.1881C14.1422 14.5887 13.7012 15.2358 13.4794 15.8784C13.4433 15.9779 13.4069 16.0797 13.3958 16.1047C13.3573 16.1907 13.1898 16.9146 13.0698 17.5077C13.0519 17.6072 13.0202 17.7542 13.002 17.8358C12.9838 17.917 12.9592 18.0596 12.9433 18.1524C12.9295 18.2451 12.9116 18.3584 12.9002 18.4012C12.8661 18.5304 12.7282 19.4128 12.6399 20.0531C12.554 20.6732 12.4973 21.1236 12.4477 21.5805C12.4228 21.8044 12.3979 22.0239 12.3934 22.067C12.3867 22.1098 12.3662 22.3294 12.3459 22.5536C12.3277 22.7775 12.3007 23.0513 12.2869 23.1646C12.2394 23.5807 12.1217 25.3934 12.0631 26.6719C12.0179 27.6197 11.9885 29.6496 12.0043 30.7561C12.0202 32.1363 12.0539 33.3697 12.0856 33.7995C12.0971 33.9736 12.1196 34.3404 12.1332 34.6142C12.1467 34.8879 12.1649 35.2386 12.1763 35.3947C12.2283 36.1777 12.269 36.6912 12.2893 36.8541C12.3007 36.9538 12.3277 37.2186 12.3459 37.4401C12.3641 37.662 12.3911 37.9267 12.4025 38.0285C12.416 38.1304 12.441 38.3498 12.4589 38.5174C12.5155 39.0536 12.5586 39.4042 12.5947 39.6375C12.6129 39.7619 12.6446 39.9746 12.6625 40.1126C12.7282 40.6103 12.8051 41.0944 12.8887 41.5382C12.9069 41.6377 12.9363 41.8053 12.9568 41.9115C12.9953 42.1377 13.0835 42.5881 13.1469 42.8731C13.364 43.8712 13.4591 44.1696 13.7147 44.6608C13.7848 44.7964 13.8752 44.9548 13.916 45.0115C13.9544 45.0681 14.011 45.1494 14.0404 45.1925C14.1695 45.3848 14.5383 45.7604 14.742 45.9054C14.7757 45.93 14.8414 45.9775 14.8842 46.0116C14.9298 46.0476 14.9726 46.0749 14.984 46.0749C14.9931 46.0749 15.0157 46.0908 15.0336 46.109C15.1219 46.195 15.7442 46.4914 16.011 46.5706C16.0608 46.5864 16.1219 46.6066 16.1468 46.6181C16.2058 46.6452 16.5382 46.7288 16.9388 46.8195C17.1131 46.8603 17.2917 46.9031 17.3346 46.9145C17.4387 46.9415 18.0948 47.0727 18.5904 47.1634C18.8753 47.2153 19.4299 47.3036 19.7781 47.3535C19.9094 47.3714 20.0769 47.3963 20.1514 47.4099C20.4252 47.4574 21.5565 47.5889 22.2669 47.6566C22.5225 47.6816 22.837 47.711 22.9682 47.7244C23.1809 47.747 23.3981 47.7652 24.4388 47.8398C24.5949 47.8512 24.9502 47.8715 25.2307 47.8852C25.5113 47.8988 25.9027 47.9191 26.1019 47.9305C27.7127 48.0232 32.3192 48.0232 33.9074 47.9305C34.1066 47.9169 34.498 47.8988 34.7786 47.8852C35.2603 47.8627 35.4369 47.8512 36.1925 47.7946C37.1608 47.7201 38.5842 47.5818 39.066 47.5141C39.2039 47.4938 39.4415 47.4621 39.5976 47.4416C40.1745 47.367 40.9665 47.247 41.4189 47.1634C41.9145 47.0727 42.5705 46.9415 42.6747 46.9145C42.7175 46.9031 42.8962 46.8603 43.0706 46.8195C43.4619 46.7311 43.8014 46.6452 43.8624 46.6181C43.9376 46.591 44.013 46.5646 44.0887 46.5389C44.2741 46.4779 44.8897 46.1859 44.9416 46.136C44.9575 46.1201 45.0027 46.0864 45.0411 46.0635C45.2177 45.9528 45.299 45.8895 45.4598 45.7445C45.6408 45.5793 45.892 45.3079 45.953 45.2151C45.9733 45.1834 46.0276 45.1066 46.0728 45.0455C46.1203 44.9822 46.1588 44.9255 46.1588 44.9164C46.1588 44.9073 46.1951 44.8439 46.2379 44.7761C46.2811 44.7083 46.333 44.6086 46.3536 44.5543C46.3761 44.5024 46.3987 44.4457 46.4078 44.4346C46.4507 44.3779 46.6092 43.9275 46.6769 43.6719C46.7834 43.276 46.9823 42.3414 47.0548 41.9C47.073 41.787 47.0933 41.6808 47.1 41.6626C47.1205 41.6127 47.245 40.8365 47.3579 40.0448C47.3828 39.8705 47.4078 39.6962 47.4145 39.6601C47.4328 39.5559 47.5141 38.8613 47.5504 38.4948C47.5683 38.3137 47.5932 38.1054 47.6068 38.0308C47.6206 37.956 47.6452 37.7118 47.6634 37.4877C47.6816 37.2638 47.7065 36.9877 47.7177 36.8767C47.7312 36.7637 47.7517 36.5058 47.7652 36.2997C47.7787 36.0938 47.7992 35.8405 47.8104 35.7341C47.8241 35.6278 47.8488 35.2363 47.867 34.863C47.8875 34.4895 47.9101 34.0302 47.9237 33.8448C48.0254 32.1996 48.0254 27.8824 47.9237 26.1854C47.9122 25.9928 47.892 25.6152 47.8784 25.3481C47.8647 25.0811 47.8444 24.7281 47.833 24.5673C47.8195 24.4044 47.7902 24.0039 47.7652 23.6737C47.7402 23.3433 47.7153 23.0331 47.7085 22.9835C47.7018 22.9336 47.6816 22.7141 47.6634 22.497C47.6452 22.2799 47.6249 22.0761 47.6182 22.0445C47.6114 22.0128 47.5865 21.8044 47.5615 21.5805C47.5029 21.0396 47.4304 20.4425 47.4145 20.3724C47.4078 20.3407 47.3828 20.1596 47.3579 19.9739C47.247 19.1278 47.0414 17.9487 46.8647 17.1456C46.8398 17.0323 46.7993 16.8492 46.7743 16.7383C46.7109 16.4486 46.6361 16.1567 46.6115 16.1047C46.6001 16.0797 46.5798 16.0187 46.5639 15.9689C46.5141 15.8016 46.2629 15.2426 46.1996 15.1542C46.1904 15.1407 46.1183 15.0345 46.0411 14.9168C45.8805 14.6747 45.4689 14.2448 45.2222 14.0637C44.7336 13.704 44.1905 13.4595 43.4893 13.2875C43.3684 13.258 43.2477 13.2278 43.1272 13.1969C43.0435 13.1722 42.8759 13.1359 42.5162 13.0613C42.4143 13.0399 42.3125 13.018 42.2108 12.9955C41.7742 12.8893 40.3532 12.6584 39.428 12.5407C39.2423 12.5181 39.0592 12.4932 39.0208 12.4844C38.9527 12.4706 38.6247 12.4368 37.9574 12.3711C37.7717 12.3529 37.5161 12.3259 37.3917 12.3145C37.2673 12.3009 37.0432 12.2807 36.8941 12.2669C36.7447 12.2558 36.5003 12.2352 36.351 12.2241C35.8442 12.181 34.437 12.0997 33.6586 12.0656C32.1539 11.9999 29.3756 11.9796 27.6517 12.0228ZM17.6832 27.3122C17.6967 27.3234 17.7624 27.3439 17.8278 27.3597C17.9502 27.3891 18.1221 27.4683 18.2509 27.5543C18.3527 27.6221 18.5927 27.88 18.64 27.9707C18.6629 28.0159 18.6875 28.0567 18.6943 28.0635C18.7014 28.0702 18.7216 28.1154 18.7397 28.1653C18.7556 28.2149 18.7758 28.2671 18.7873 28.2783C18.8166 28.3214 18.8507 28.5905 18.8507 28.7898C18.8507 28.9843 18.821 29.2129 18.7826 29.2966C18.6606 29.5771 18.6016 29.6698 18.4478 29.8329C18.3052 29.98 18.2465 30.0252 18.052 30.1203C17.8935 30.1995 17.7803 30.2403 17.6899 30.2491C17.6174 30.2581 17.5541 30.274 17.5473 30.2832C17.5315 30.3104 17.0406 30.3104 17.0406 30.2832C17.0406 30.274 16.9839 30.2581 16.9114 30.2491C16.8414 30.2403 16.7533 30.2198 16.7149 30.2039C16.6658 30.1818 16.616 30.1615 16.5655 30.1428C16.5224 30.1271 16.4816 30.1088 16.4749 30.102C16.4681 30.093 16.4341 30.0727 16.3956 30.0546C16.2645 29.989 15.993 29.688 15.9138 29.5228C15.8707 29.4345 15.8302 29.3485 15.8188 29.3306C15.7419 29.1766 15.7284 28.4752 15.8006 28.3123C15.8212 28.2692 15.8504 28.197 15.8663 28.1538C15.8821 28.111 15.9003 28.0702 15.9071 28.0635C15.9138 28.0567 15.9409 28.0112 15.9658 27.9616C16.0089 27.8777 16.278 27.5881 16.3165 27.5881C16.3255 27.5881 16.3461 27.5722 16.3619 27.552C16.4047 27.5044 16.6242 27.3982 16.7578 27.3642C16.8211 27.3483 16.8912 27.3257 16.9162 27.3143C16.9411 27.3032 17.0021 27.2917 17.0518 27.285C17.1852 27.2714 17.6538 27.2917 17.6832 27.3122ZM42.3352 28.8892V30.0319H37.946V28.5024L38.1904 28.4637C38.7312 28.3801 39.0683 28.3235 39.0886 28.31C39.1021 28.3009 39.213 28.2829 39.3374 28.2671C39.4617 28.2513 39.575 28.2307 39.5862 28.2216C39.6 28.2128 39.7062 28.1923 39.8239 28.1765C39.9415 28.1629 40.0953 28.1357 40.1634 28.1177C40.2312 28.1019 40.3737 28.0769 40.4799 28.0635C40.5864 28.0497 40.6927 28.0294 40.7176 28.0203C40.7425 28.0092 40.8555 27.9887 40.9664 27.9728C41.0796 27.9593 41.2061 27.939 41.2493 27.9253C41.2921 27.9141 41.4552 27.8824 41.6113 27.8574C41.7675 27.8325 41.9711 27.7988 42.0638 27.7829C42.1565 27.7647 42.256 27.7512 42.2854 27.7489L42.3352 27.7465V28.8892ZM23.6017 29.8984V31.2538H25.8642V33.2678H23.5996L23.6085 35.3654C23.6154 37.6259 23.6107 37.5149 23.7331 37.7931C23.8258 38.0083 24.0881 38.2277 24.3144 38.282C24.3528 38.2911 24.396 38.3091 24.4141 38.3228C24.457 38.3566 25.3734 38.3566 25.4141 38.3205C25.432 38.307 25.5136 38.2888 25.5995 38.2797L25.7513 38.2639V40.2485L25.69 40.2755C25.6336 40.3004 25.3734 40.3412 25.016 40.3841C24.5069 40.443 23.5791 40.4498 23.5248 40.3931C23.5113 40.382 23.4752 40.3729 23.4412 40.3729C23.3528 40.3729 22.9864 40.3048 22.9591 40.2845C22.9456 40.2755 22.8846 40.2528 22.8212 40.2394C22.7602 40.2235 22.6991 40.2029 22.6854 40.1942C22.6742 40.1827 22.6223 40.1625 22.5724 40.1466C22.5225 40.1308 22.4773 40.1102 22.4705 40.1035C22.4638 40.0967 22.423 40.0718 22.3799 40.0468C22.1921 39.9474 22.1358 39.9113 22.036 39.8273C21.9773 39.7799 21.923 39.7394 21.9116 39.7394C21.889 39.737 21.7171 39.5491 21.5815 39.3773C21.4774 39.2437 21.3233 38.9881 21.2713 38.8567C21.2532 38.8138 21.233 38.773 21.2262 38.7662C21.2171 38.7594 21.1945 38.6894 21.1719 38.6078C21.1514 38.5265 21.1243 38.4405 21.1129 38.4155C21.1018 38.3906 21.0745 38.2888 21.0566 38.1893C21.0374 38.0948 21.017 38.0004 20.9953 37.9064C20.9794 37.8387 20.9682 37.0419 20.9615 35.5351L20.9525 33.2678H19.6423V31.2538H20.9548V28.9729L21.1085 28.9571C21.1922 28.9482 21.2713 28.9324 21.2828 28.9233C21.2963 28.9142 21.4072 28.894 21.5316 28.878C21.656 28.8623 21.7693 28.8394 21.7805 28.8306C21.794 28.8215 21.9366 28.7965 22.0973 28.7763C22.2601 28.7533 22.4028 28.7287 22.4139 28.7196C22.4274 28.7105 22.5022 28.6947 22.5835 28.6879C22.6898 28.6752 22.7956 28.6578 22.9004 28.636C23.1425 28.5861 23.5656 28.5203 23.5858 28.5318C23.5949 28.5362 23.6017 29.1519 23.6017 29.8984ZM31.102 31.0388C31.4186 31.0569 31.7763 31.0977 31.8033 31.118C31.8168 31.127 31.8711 31.1429 31.9277 31.1497C32.0568 31.1702 32.3714 31.2629 32.5612 31.3398C32.7197 31.4033 33.0726 31.5796 33.1269 31.6251C33.1451 31.6386 33.1856 31.6656 33.2173 31.6793C33.2489 31.6952 33.3488 31.7741 33.4367 31.8514C33.525 31.9305 33.6066 31.9984 33.6177 32.0027C33.6518 32.0186 34.0544 32.5075 34.0544 32.5345C34.0544 32.5412 34.075 32.5777 34.0999 32.6114C34.1474 32.6795 34.3487 33.0709 34.3487 33.0959C34.3487 33.1047 34.3669 33.1545 34.3915 33.2065C34.4141 33.2587 34.4414 33.338 34.4505 33.3808C34.4595 33.4239 34.4755 33.4692 34.4843 33.4826C34.4933 33.4941 34.5139 33.5663 34.5297 33.6411C34.5432 33.7156 34.5614 33.7929 34.5682 33.8107C34.5773 33.8289 34.5975 33.9261 34.6157 34.0258C34.6428 34.1752 34.6494 34.7386 34.6585 37.2321L34.6676 40.2596H32.1993L32.1971 39.9926C32.1947 39.8479 32.1879 39.6375 32.1788 39.5265L32.1653 39.3229L32.0997 39.4133C31.9958 39.5515 31.6539 39.8772 31.5184 39.9677C31.2217 40.1625 31.1428 40.2097 31.0612 40.2371C31.0113 40.2506 30.9459 40.2778 30.9142 40.2956C30.8802 40.3116 30.7966 40.3388 30.7285 40.3524C30.6607 40.3681 30.5929 40.3887 30.5815 40.3975C30.4662 40.4835 29.0408 40.4814 28.9298 40.3955C28.9187 40.3864 28.8371 40.3662 28.7488 40.3503C28.6629 40.3345 28.561 40.3095 28.5226 40.2913C28.4866 40.2755 28.3891 40.2346 28.3101 40.2029C28.2191 40.1634 28.1301 40.1196 28.0432 40.0718C27.983 40.0346 27.9219 39.9992 27.8597 39.9656C27.7647 39.9133 27.733 39.884 27.4751 39.626C27.2104 39.3613 27.1764 39.3253 27.1764 39.3003C27.1764 39.2912 27.147 39.2414 27.1133 39.1894C27.0769 39.1375 27.025 39.0424 26.9976 38.9811C26.9707 38.918 26.9343 38.8431 26.9185 38.8114C26.9006 38.7797 26.8757 38.6984 26.8598 38.6304C26.844 38.5625 26.8238 38.4948 26.8146 38.4834C26.7896 38.4517 26.7465 38.1303 26.7465 37.99C26.7465 37.9247 26.7354 37.8589 26.7219 37.8454C26.6946 37.8181 26.7013 37.7277 26.7715 37.1821C26.785 37.0759 26.8055 36.9786 26.8146 36.9674C26.8237 36.9538 26.8439 36.8949 26.8574 36.8339C26.8868 36.7162 26.9481 36.5624 27.0115 36.4468C27.0317 36.4084 27.0588 36.3564 27.0725 36.3291C27.0861 36.2998 27.1042 36.2772 27.1153 36.2772C27.1244 36.2772 27.1312 36.2637 27.1312 36.2478C27.1312 36.2229 27.3801 35.8993 27.4232 35.8699C27.4322 35.8631 27.4481 35.8406 27.4549 35.8179C27.4639 35.793 27.4909 35.7704 27.5159 35.7637C27.5408 35.7569 27.5611 35.7431 27.5611 35.734C27.5611 35.7114 27.9413 35.4127 28.0701 35.3381C28.1628 35.2815 28.3712 35.1753 28.6743 35.0303C28.7174 35.0078 29.1402 34.8721 29.326 34.82C29.3937 34.7997 29.5273 34.7723 29.62 34.7589C29.7127 34.743 29.801 34.7249 29.8124 34.7161C29.8259 34.7069 29.9615 34.6864 30.1179 34.6729C30.274 34.6593 30.4662 34.6368 30.5477 34.6253C30.8691 34.5778 31.9978 34.5869 32.1178 34.6368C32.1586 34.6547 32.1607 34.6458 32.1449 34.4534C32.136 34.3425 32.1202 34.2474 32.1111 34.2406C32.0997 34.2338 32.0861 34.191 32.0771 34.1456C32.0612 34.0619 31.9752 33.8788 31.8939 33.7541C31.8417 33.6751 31.6222 33.4486 31.5973 33.4486C31.5885 33.4486 31.5501 33.426 31.5114 33.3967C31.4118 33.3242 31.2514 33.252 31.154 33.2338C31.1064 33.2247 31.068 33.2089 31.068 33.1998C31.068 33.1003 29.6065 33.0844 29.1676 33.1818C29.1109 33.193 28.9798 33.2179 28.8735 33.2361C28.767 33.254 28.6608 33.2789 28.6358 33.2904C28.6109 33.3016 28.5296 33.3221 28.4548 33.3356C28.3803 33.3491 28.2987 33.3696 28.2738 33.3808C28.2488 33.3922 28.1585 33.4172 28.0725 33.4375C27.9865 33.4577 27.905 33.4803 27.8914 33.4917C27.8779 33.5009 27.8169 33.5234 27.7535 33.5392C27.6925 33.5551 27.6291 33.5777 27.6177 33.5868C27.6042 33.5959 27.5431 33.6161 27.4818 33.632C27.4187 33.6455 27.3304 33.6772 27.2853 33.6998C27.2377 33.7247 27.1946 33.7429 27.1878 33.7429C27.1811 33.7429 27.1764 33.2699 27.1764 32.693C27.1764 31.876 27.1834 31.6385 27.206 31.6204C27.2219 31.6068 27.2853 31.5843 27.3462 31.5685C27.4096 31.5549 27.4707 31.5344 27.4818 31.5253C27.4957 31.5162 27.5702 31.4893 27.6517 31.4687C27.733 31.4461 27.8099 31.4214 27.8214 31.4123C27.8349 31.4008 27.905 31.3827 27.9774 31.3671C28.0523 31.3513 28.1292 31.3308 28.147 31.3196C28.1676 31.3106 28.2602 31.2855 28.353 31.2653C28.4251 31.2513 28.4968 31.2354 28.5681 31.2178C28.5927 31.2107 28.7195 31.1905 28.8506 31.1722C28.9821 31.1544 29.12 31.1294 29.1561 31.118C29.2875 31.0774 30.4729 31.0027 30.7399 31.0185C30.8145 31.0229 30.9776 31.0321 31.102 31.0388V31.0388ZM18.6241 35.7569V40.2596H15.9772V31.2538H18.6241V35.7569ZM38.6247 34.0596C38.6247 36.7388 38.6361 37.257 38.6904 37.3295C38.7015 37.3407 38.7153 37.3858 38.7244 37.429C38.7561 37.5986 38.9031 37.8454 39.0703 38.0127C39.1587 38.1033 39.2581 38.1825 39.2898 38.1914C39.3238 38.1984 39.3488 38.2119 39.3488 38.221C39.3488 38.2298 39.428 38.2615 39.5251 38.2932C39.6701 38.3387 39.747 38.3475 39.9732 38.3475C40.1317 38.3475 40.2695 38.3363 40.3012 38.3228C40.3305 38.307 40.4007 38.2844 40.4573 38.2685C40.514 38.2527 40.6158 38.2052 40.6836 38.1597C40.8103 38.0784 41.0456 37.8613 41.0456 37.8248C41.0456 37.8137 41.0773 37.7638 41.1134 37.7163C41.1518 37.6664 41.1815 37.6168 41.1815 37.6033C41.1815 37.5895 41.2018 37.542 41.2243 37.4968C41.2493 37.4515 41.2763 37.3747 41.2854 37.3271C41.2921 37.2773 41.3079 37.2277 41.3194 37.2163C41.3761 37.1438 41.3851 36.6869 41.3851 34.0325V31.2538H44.032V40.2597H42.7787C41.7992 40.2597 41.5184 40.2529 41.5049 40.2303C41.4958 40.2168 41.4847 40.0017 41.48 39.7551C41.4755 39.5108 41.4642 39.3094 41.4553 39.3094C41.4463 39.3094 41.4189 39.3365 41.392 39.3704C41.2652 39.5425 41.066 39.737 40.7538 39.9949C40.7086 40.031 40.6159 40.0809 40.4123 40.1804C40.3195 40.2256 40.2177 40.2778 40.186 40.2936C40.1543 40.3095 40.0684 40.3344 39.9935 40.3503C39.919 40.3661 39.8532 40.3863 39.8465 40.3955C39.824 40.4293 39.4234 40.4633 39.0276 40.4633C38.6385 40.4633 38.3217 40.4362 38.2289 40.3975C38.204 40.3864 38.118 40.3591 38.0364 40.3388C37.9552 40.3186 37.8804 40.2913 37.8668 40.2822C37.8557 40.2731 37.8014 40.2505 37.7492 40.2346C37.6949 40.2211 37.6521 40.2009 37.6521 40.1918C37.6521 40.1827 37.6113 40.1625 37.5614 40.1466C37.5118 40.1308 37.471 40.1102 37.471 40.1012C37.471 40.0924 37.446 40.0741 37.4167 40.0606C37.2222 39.9723 36.7809 39.5582 36.5954 39.2912C36.4822 39.1284 36.3079 38.8023 36.2718 38.6826C36.2583 38.635 36.2311 38.565 36.2152 38.5286C36.1994 38.4901 36.1724 38.4088 36.1586 38.3475C36.1451 38.2844 36.1248 38.2186 36.1134 38.1961C36.1022 38.1755 36.0817 38.0693 36.0682 37.9584C36.0547 37.8498 36.0298 37.7389 36.0162 37.7139C35.9957 37.6801 35.9866 36.8723 35.9822 34.4601L35.9754 31.2538H38.6247L38.6247 34.0596Z" fill="white"/>
<path d="M31.0672 36.2636C30.9908 36.2707 30.9126 36.2823 30.8954 36.2895C30.8782 36.2983 30.822 36.3112 30.7704 36.3213C30.7205 36.3299 30.6533 36.3474 30.622 36.3603C30.3876 36.4542 30.2736 36.5165 30.1956 36.5916C30.1205 36.664 30.0454 36.7984 30.033 36.8822C30.0298 36.911 30.0188 36.9487 30.0095 36.9644C29.9923 36.9978 29.9986 37.1003 30.0268 37.2347C30.0579 37.3807 30.183 37.5586 30.2938 37.612C30.4907 37.706 30.5282 37.7203 30.6377 37.7363C30.8344 37.7637 31.2095 37.7479 31.2907 37.7074C31.3047 37.7001 31.3626 37.6756 31.4187 37.6525C31.4751 37.628 31.5484 37.5888 31.5829 37.5642C31.6173 37.5397 31.6562 37.5108 31.6704 37.5007C31.7593 37.4386 31.9235 37.1871 31.9453 37.0831C31.95 37.057 31.9626 37.0266 31.9719 37.015C31.9828 37.0021 31.9906 36.869 31.9938 36.6306L32 36.2664L31.9156 36.2578C31.8014 36.2447 31.2392 36.2491 31.0672 36.2636Z" fill="white"/>
</svg>
