<svg width="60" height="60" viewBox="0 0 60 60" fill="none" xmlns="http://www.w3.org/2000/svg">
<rect width="60" height="60" rx="30" fill="white"/>
<path d="M36.935 19.7319H23.8129V41.1643H36.935V19.7319Z" fill="#FF5F00"/>
<path d="M25.1642 30.45C25.1626 28.3862 25.6304 26.3491 26.5323 24.4929C27.4342 22.6367 28.7465 21.0099 30.3699 19.7357C28.3592 18.1555 25.9446 17.1729 23.4018 16.9001C20.8591 16.6274 18.291 17.0755 15.9909 18.1933C13.6908 19.311 11.7516 21.0533 10.3949 23.2211C9.03816 25.3888 8.3187 27.8946 8.3187 30.4519C8.3187 33.0092 9.03816 35.5149 10.3949 37.6826C11.7516 39.8504 13.6908 41.5927 15.9909 42.7104C18.291 43.8282 20.8591 44.2763 23.4018 44.0036C25.9446 43.7308 28.3592 42.7482 30.3699 41.168C28.746 39.8934 27.4334 38.2661 26.5315 36.4091C25.6296 34.5522 25.162 32.5143 25.1642 30.45Z" fill="#EB001B"/>
<path d="M51.1211 38.8964V38.4573H51.3104V38.3664H50.8599V38.4573H51.0378V38.8964H51.1211ZM51.9957 38.8964V38.3664H51.8594L51.7003 38.745L51.5413 38.3664H51.405V38.8964H51.5035V38.4951L51.6511 38.8396H51.7534L51.901 38.4951V38.8964H51.9957Z" fill="#F79E1B"/>
<path d="M52.4229 30.45C52.4228 33.0075 51.7032 35.5134 50.3462 37.6812C48.9893 39.849 47.0498 41.5913 44.7494 42.7089C42.449 43.8265 39.8806 44.2743 37.3378 44.0012C34.7949 43.728 32.3802 42.7449 30.3697 41.1643C31.9924 39.8889 33.3044 38.2617 34.2065 36.4054C35.1086 34.549 35.5774 32.512 35.5774 30.4481C35.5774 28.3842 35.1086 26.3472 34.2065 24.4908C33.3044 22.6345 31.9924 21.0073 30.3697 19.7319C32.3802 18.1513 34.7949 17.1682 37.3378 16.895C39.8806 16.6219 42.449 17.0697 44.7494 18.1873C47.0498 19.3049 48.9893 21.0472 50.3462 23.215C51.7032 25.3828 52.4228 27.8887 52.4229 30.4462V30.45Z" fill="#F79E1B"/>
</svg>
