<svg width="60" height="60" viewBox="0 0 60 60" fill="none" xmlns="http://www.w3.org/2000/svg">
<rect width="60" height="60" rx="30" fill="#820AD1"/>
<path d="M17.036 20.246C18.3562 18.8282 20.1073 18 22.1646 18C26.1724 18 28.8296 20.9913 29.338 25.4724C29.5028 26.9277 29.5013 28.9793 29.4997 31.3557C29.4994 31.5994 29.4994 31.8465 29.4994 32.0968V40.999H23.9879V34.4146C23.9879 34.4146 23.9766 28.7793 23.9429 27.7261C23.795 23.1391 21.1385 20.2568 17.0355 20.2537C15.7976 21.5907 15.1343 23.2253 15.0365 25.7248C15.023 26.0734 15.0264 27.3091 15.0309 28.9377C15.0332 29.7815 15.0358 30.7308 15.0365 31.7168C15.0406 36.0086 15.0365 41 15.0365 41H9.52495V30.8667C9.52495 30.5195 9.51876 30.1693 9.51255 29.8177C9.50005 29.1106 9.48745 28.398 9.52495 27.6924C9.58722 26.5161 9.78629 25.3597 10.3232 24.2855C11.5523 21.8245 14.0707 20.2399 16.7555 20.2399C16.8493 20.2399 16.9432 20.2423 17.036 20.246Z" fill="white"/>
<path d="M51.475 32.3095C51.5125 31.604 51.4999 30.8915 51.4875 30.1845C51.4812 29.833 51.475 29.4829 51.475 29.1358V19.0043H45.9633C45.9633 19.0043 45.9592 23.9948 45.9633 28.2857C45.9639 29.2716 45.9665 30.2207 45.9688 31.0643C45.9733 32.6927 45.9767 33.9281 45.9633 34.2767C45.8655 36.7757 45.2021 38.4101 43.9641 39.7468C39.8609 39.7439 37.2043 36.8619 37.0563 32.2758C37.0226 31.2228 37.0084 28.6097 37.0084 25.5832V19L31.5007 19.0051V27.9058C31.5007 28.156 31.5003 28.403 31.5003 28.6468C31.4986 31.0227 31.4972 33.0739 31.662 34.529C32.1694 39.0093 34.8267 42 38.8348 42C40.8922 42 42.6435 41.172 43.9637 39.7544C44.0565 39.7581 44.1503 39.7603 44.2441 39.7603C46.929 39.7603 49.4476 38.1761 50.6768 35.7156C51.2138 34.6414 51.4128 33.4854 51.4751 32.3093L51.475 32.3095Z" fill="white"/>
</svg>
