<svg width="60" height="60" viewBox="0 0 60 60" fill="none" xmlns="http://www.w3.org/2000/svg">
<rect width="60" height="60" rx="30" fill="#32BCAD"/>
<path d="M40.6826 40.1208C39.2004 40.1208 37.8062 39.5436 36.7579 38.4959L31.091 32.8288C30.6931 32.4299 29.9997 32.4311 29.602 32.8288L23.9144 38.5166C22.8662 39.5643 21.472 40.1415 19.9897 40.1415H18.8729L26.0502 47.3186C28.2916 49.5601 31.9259 49.5601 34.1675 47.3186L41.3652 40.1208H40.6826Z" fill="white"/>
<path d="M19.9893 20.076C21.4716 20.076 22.8658 20.6531 23.9141 21.7008L29.6017 27.3894C30.0113 27.7992 30.6801 27.8008 31.0907 27.389L36.7576 21.7216C37.8058 20.6738 39.2 20.0967 40.6823 20.0967H41.3649L34.1673 12.899C31.9256 10.6574 28.2913 10.6574 26.0499 12.899L18.8729 20.076L19.9893 20.076Z" fill="white"/>
<path d="M47.3189 26.0501L42.9693 21.7005C42.8735 21.7389 42.7698 21.7628 42.6603 21.7628H40.6827C39.6602 21.7628 38.6594 22.1775 37.9369 22.9005L32.2702 28.5674C31.7399 29.0977 31.0431 29.363 30.3469 29.363C29.6501 29.363 28.9537 29.0977 28.4236 28.5679L22.7355 22.8798C22.013 22.1566 21.0121 21.7421 19.9897 21.7421H17.558C17.4543 21.7421 17.3574 21.7177 17.2659 21.6832L12.899 26.0501C10.6574 28.2917 10.6574 31.9258 12.899 34.1674L17.2657 38.5341C17.3574 38.4997 17.4543 38.4752 17.558 38.4752H19.9897C21.0121 38.4752 22.013 38.0607 22.7355 37.3377L28.4231 31.6501C29.4511 30.6229 31.2432 30.6226 32.2702 31.6506L37.9369 37.317C38.6594 38.0399 39.6602 38.4546 40.6827 38.4546H42.6603C42.7698 38.4546 42.8735 38.4786 42.9693 38.5169L47.3189 34.1674C49.5603 31.9258 49.5603 28.2917 47.3189 26.0501Z" fill="white"/>
</svg>
