<svg width="60" height="60" viewBox="0 0 60 60" fill="none" xmlns="http://www.w3.org/2000/svg">
<rect width="60" height="60" rx="30" fill="#1E2044"/>
<path fill-rule="evenodd" clip-rule="evenodd" d="M33.8223 32.4451C33.7405 30.6294 33.0608 29.5291 32.3891 28.8663H32.3972C33.2883 28.8663 34.5283 29.6482 34.5283 30.8992C34.5283 31.5898 34.2942 32.0931 33.8223 32.4451ZM30.8086 35.9227V34.1798C31.4523 34.1654 32.0355 34.1059 32.5567 34.0033C32.3052 35.1893 31.6495 35.7517 30.8086 35.9227ZM28.3763 33.8915C28.7049 34.0065 29.1132 34.0995 29.6462 34.1475V35.887C29.0042 35.6586 28.4498 35.0094 28.3763 33.8915ZM28.3676 28.8663H29.6462V33.0729C29.1692 33.0095 28.7451 32.8936 28.3676 32.7396V28.8663ZM26.3528 26.0515C26.3528 25.4209 26.6404 24.8749 27.2052 24.4809V27.5641C26.664 27.2517 26.3528 26.6779 26.3528 26.0515ZM29.6462 21.1908V22.7708C29.2177 22.7829 28.8047 22.8288 28.4143 22.9066C28.5548 22.1205 29.0069 21.468 29.6462 21.1908ZM32.1373 23.1548C31.7803 23.0293 31.3468 22.9018 30.8086 22.8289V21.1214C31.4313 21.3263 31.9578 21.9678 32.1373 23.1548ZM30.8086 27.759V23.8882C31.2942 23.9559 31.7617 24.0748 32.2014 24.2359C32.1561 25.9092 31.3092 27.4609 30.8086 27.759ZM28.3676 23.9851C28.7426 23.8946 29.169 23.8398 29.6462 23.8265V27.8107H28.3676V23.9851ZM32.6675 32.9337C32.1554 33.0514 31.5363 33.1115 30.8086 33.1245V28.8768C31.34 28.9994 32.6685 30.2891 32.6685 32.8148C32.6685 32.8548 32.6681 32.8944 32.6675 32.9337ZM32.2035 27.8107H32.1451C32.7272 27.0866 33.1905 25.9398 33.3256 24.774C33.7343 25.0214 34.1008 25.3074 34.412 25.6214C34.5669 25.7778 34.6445 25.856 34.7607 25.856C34.9932 25.856 35.1094 25.6605 34.9932 25.465C34.6833 24.9568 34.5669 24.5267 34.5669 23.9795C34.5669 23.6275 34.6833 23.3148 34.7607 23.1193C34.8382 22.9239 34.7607 22.7284 34.5283 22.7284C34.3345 22.7284 34.2958 22.8848 34.2183 23.002C34.0695 23.2648 33.7775 23.4908 33.343 23.5086C33.1757 21.3959 32.105 20.3613 31.0008 20.0759C31.3972 19.1237 32.3794 18.5392 33.6758 18.2716C33.8696 18.2325 34.0246 18.1544 34.0246 17.998C34.0246 17.8025 33.8696 17.7243 33.6758 17.7243C33.2496 17.7243 32.6296 17.9588 32.1259 18.1152C31.3511 18.3498 30.6924 18.5062 30.1111 18.5062C28.8713 18.5062 27.7863 17.9588 27.4376 17.9588C27.2827 17.9588 27.1664 18.0761 27.1664 18.2325C27.1664 18.3498 27.2439 18.4671 27.4764 18.5453C28.5064 18.8824 29.1763 19.4212 29.472 20.1474C28.86 20.3741 28.3526 20.8352 28.0056 21.4377C27.5932 20.5989 27.071 20.2264 26.314 20.2264C25.5778 20.2264 24.9966 20.7736 24.9966 21.4382C24.9966 21.9073 25.3066 22.2593 25.6553 22.2593C25.8103 22.2593 25.8878 22.1811 25.8878 22.0638C25.8878 21.9073 25.8103 21.8683 25.8103 21.6338C25.8103 21.3992 26.004 21.2037 26.314 21.2037C26.7789 21.2037 27.2052 21.6729 27.2052 22.9629V23.2842C25.9863 23.8289 25.1904 24.7887 25.1904 26.0905C25.1904 27.4279 26.0644 28.428 27.2052 28.753V32.0513C26.336 31.3454 25.8492 30.433 25.5391 29.7655C25.4616 29.6091 25.3841 29.4135 25.1904 29.4135C24.9579 29.4135 24.8804 29.6482 24.9966 29.9219C25.1128 30.1954 25.1904 30.6255 25.1904 31.0164C25.1904 31.4856 25.0354 31.9156 24.7254 32.2284C24.5705 32.3847 24.4541 32.502 24.4541 32.6194C24.4541 32.7757 24.5705 32.8539 24.6867 32.8539C24.9191 32.8539 25.1904 32.5802 25.6941 32.5802C26.004 32.5802 26.3915 32.7366 27.0115 33.1276C27.0765 33.1662 27.1405 33.2075 27.2052 33.2507V33.714V34.2613C27.2052 34.8087 26.9727 35.1605 26.5078 35.1605C26.1978 35.1605 26.004 34.9259 26.004 34.6131C26.004 34.3786 26.159 34.3004 26.159 34.1832C26.159 34.0658 26.0815 33.9876 25.9265 33.9876C25.6941 33.9876 25.3066 34.3395 25.3066 34.9259C25.3066 35.4733 25.6941 36.1379 26.5078 36.1379C26.9685 36.1379 27.4013 35.9967 27.8063 35.5947C28.1817 36.2066 28.8403 36.7528 29.5853 36.9543C29.3812 37.9869 28.675 38.8354 27.6702 38.8354C27.1664 38.8354 26.8953 38.5618 26.8953 38.2098C26.8953 37.9362 27.0889 37.7799 27.2439 37.7016C27.4376 37.6235 27.5926 37.5843 27.5926 37.3498C27.5926 37.2325 27.5151 37.0761 27.1276 37.0761C26.4302 37.0761 25.8491 37.7016 25.8491 38.4445C25.8491 39.2654 26.4302 40.0473 27.6314 40.0473C28.6551 40.0473 29.5465 39.5408 30.1097 38.9021C30.7725 39.4425 31.7821 39.8909 32.281 39.8909C32.4359 39.8909 32.5909 39.8128 32.5909 39.6564C32.5909 39.5 32.4359 39.3827 32.281 39.3045C31.3898 38.8354 30.8086 38.1708 30.8086 36.998V36.9786C32.1921 36.7184 33.4861 35.5866 33.7721 33.6393C35.0313 33.0995 35.6907 32.1692 35.6907 30.8992C35.6907 29.0617 33.9858 27.8107 32.2035 27.8107ZM38.7903 38.8354C37.4342 38.8354 36.5431 38.0535 36.5431 36.8807C36.5431 35.9033 37.2018 35.1214 37.9767 35.1214C38.2866 35.1214 38.5578 35.2386 38.5578 35.5514C38.5578 35.747 38.4804 35.9033 38.6741 35.9033C38.7903 35.9033 38.9066 35.786 38.9066 35.4733C38.9066 35.0823 38.5578 34.7695 38.0542 34.7695H37.9379C38.0154 34.6131 38.0154 34.4567 38.0154 34.4177C38.0154 34.0658 37.7442 33.8704 37.473 33.8704C37.2018 33.8704 36.9305 34.0268 36.9305 34.2222C36.9305 34.3004 36.9693 34.3395 37.0468 34.3395C37.163 34.3395 37.2018 34.2222 37.3955 34.2222C37.5505 34.2222 37.6667 34.3004 37.6667 34.4959C37.6667 34.7695 37.4342 34.8868 37.2404 35.0041C36.6206 35.356 36.1944 36.0597 36.1944 36.8807C36.1944 37.9753 36.8143 38.679 37.7055 38.9917L37.1242 39.8909C36.3494 39.8909 35.9619 40.4774 35.2644 41.7284C35.187 41.4156 34.9544 41.181 34.5669 41.181C34.1408 41.181 33.8696 41.4938 33.8696 41.9238C33.8696 42.0412 33.947 42.1193 34.0246 42.1193C34.1408 42.1193 34.2183 42.0412 34.2183 41.9238C34.2183 41.7284 34.3345 41.5328 34.5669 41.5328C34.8382 41.5328 34.9544 41.7284 34.9544 41.9629C34.9544 42.2366 34.9157 42.393 34.722 42.7057C33.9083 44.0349 32.7846 44.6996 31.816 44.6996C30.9636 44.6996 30.4599 44.1913 30.4599 43.6831C30.4599 43.214 30.7312 42.8231 31.1961 42.8231C31.5061 42.8231 31.6998 43.0185 31.6998 43.2922C31.6998 43.5267 31.5061 43.5267 31.5061 43.644C31.5061 43.7222 31.5835 43.7613 31.661 43.7613C31.8936 43.7613 32.0485 43.4876 32.0485 43.214C32.0485 42.7839 31.6998 42.4711 31.1961 42.4711C30.7312 42.4711 30.3437 42.7839 30.2274 43.0966C30.1111 42.7839 29.7237 42.4711 29.2587 42.4711C28.755 42.4711 28.4063 42.7839 28.4063 43.214C28.4063 43.4876 28.5613 43.7613 28.7938 43.7613C28.8713 43.7613 28.9487 43.7222 28.9487 43.644C28.9487 43.5267 28.755 43.5267 28.755 43.2922C28.755 43.0185 28.9487 42.8231 29.2587 42.8231C29.7237 42.8231 29.9949 43.214 29.9949 43.6831C29.9949 44.1913 29.4912 44.6996 28.6388 44.6996C27.6702 44.6996 26.5465 44.0349 25.7329 42.7057C25.5391 42.393 25.5003 42.2366 25.5003 41.9629C25.5003 41.7284 25.6165 41.5328 25.8878 41.5328C26.1203 41.5328 26.2366 41.7284 26.2366 41.9238C26.2366 42.0412 26.314 42.1193 26.4302 42.1193C26.5078 42.1193 26.5852 42.0412 26.5852 41.9238C26.5852 41.4938 26.314 41.181 25.8878 41.181C25.5003 41.181 25.2678 41.4156 25.1904 41.7284C24.4929 40.4774 24.1054 39.8909 23.3305 39.8909L22.7493 38.9917C23.6405 38.679 24.2604 37.9753 24.2604 36.8807C24.2604 36.0597 23.8342 35.356 23.2143 35.0041C23.0206 34.8868 22.788 34.7695 22.788 34.4959C22.788 34.3004 22.9043 34.2222 23.0594 34.2222C23.253 34.2222 23.2917 34.3395 23.408 34.3395C23.4855 34.3395 23.5243 34.3004 23.5243 34.2222C23.5243 34.0268 23.253 33.8704 22.9818 33.8704C22.7106 33.8704 22.4393 34.0658 22.4393 34.4177C22.4393 34.4567 22.4393 34.6131 22.5168 34.7695H22.4007C21.897 34.7695 21.5482 35.0823 21.5482 35.4733C21.5482 35.786 21.6644 35.9033 21.7806 35.9033C21.9744 35.9033 21.897 35.747 21.897 35.5514C21.897 35.2386 22.1681 35.1214 22.4781 35.1214C23.253 35.1214 23.9117 35.9033 23.9117 36.8807C23.9117 38.0535 23.0206 38.8354 21.6644 38.8354C20.0759 38.8354 18.8747 37.6626 18.8747 36.0205C18.8747 34.4177 19.8046 33.323 20.8508 32.3457L21.7419 31.4856C22.8656 30.4301 23.3305 29.3354 23.3305 27.9671C23.3305 26.4815 22.4393 24.8395 20.5795 24.0185C20.967 23.9012 21.1995 23.5103 21.1995 23.0412C21.1995 22.7284 21.0832 22.5329 21.0832 22.2983C21.0832 21.8292 21.3545 21.5555 21.7419 21.5555C22.0906 21.5555 22.3231 21.8292 22.3231 22.1029C22.3231 22.3374 22.1681 22.5329 21.897 22.5329C21.7806 22.5329 21.7032 22.5329 21.7032 22.6502C21.7032 22.7675 21.8194 22.8066 21.9744 22.8066C22.4393 22.8066 22.6719 22.4157 22.6719 22.2201C22.7493 22.2593 22.8268 22.2983 22.943 22.2983C23.2143 22.2983 23.408 22.1029 23.408 21.8292C23.408 21.751 23.3693 21.6338 23.253 21.6338C23.1755 21.6338 23.1368 21.7119 23.1368 21.7902C23.1368 21.9073 23.0594 21.9856 22.943 21.9856C22.788 21.9856 22.6719 21.8683 22.5943 21.7119C22.4393 21.4382 22.1293 21.2037 21.7419 21.2037C21.2383 21.2037 20.8508 21.5555 20.7732 22.0247C20.5408 21.7902 20.2695 21.5555 19.8821 21.321C20.1921 21.1255 20.4633 20.9691 20.7732 20.7346C21.2383 20.3827 21.6644 19.9917 22.1293 19.4835L24.2604 17.1379C26.1203 15.0659 27.3214 14.5576 28.4838 14.5576C29.4912 14.5576 29.9949 15.0659 29.9949 15.6523C29.9949 16.0821 29.8119 16.4012 29.5215 16.5588C29.3566 16.3901 29.2354 16.1598 29.1813 15.8868C29.1425 15.6914 29.1037 15.6914 29.065 15.6914C28.9875 15.6914 28.9875 15.7695 28.9875 15.8478C28.9875 16.1822 29.0665 16.4517 29.196 16.6606C29.1534 16.6658 29.1098 16.6687 29.065 16.6687C28.6775 16.6687 28.445 16.4733 28.445 16.2387C28.445 16.1996 28.445 16.1214 28.5226 16.0432C28.6 15.9651 28.5613 15.9259 28.5226 15.9259C28.3676 15.9259 28.2126 16.1214 28.2126 16.356C28.2126 16.6297 28.445 17.0206 29.1037 17.0206C29.2013 17.0206 29.3308 17.0081 29.47 16.9659C29.6886 17.1347 29.9579 17.2161 30.2274 17.2161C30.4968 17.2161 30.7662 17.1347 30.9847 16.9659C31.1239 17.0081 31.2534 17.0206 31.3511 17.0206C32.0098 17.0206 32.2421 16.6297 32.2421 16.356C32.2421 16.1214 32.0872 15.9259 31.9322 15.9259C31.8936 15.9259 31.8547 15.9651 31.9322 16.0432C32.0098 16.1214 32.0098 16.1996 32.0098 16.2387C32.0098 16.4733 31.7772 16.6687 31.3898 16.6687C31.3449 16.6687 31.3014 16.6658 31.2588 16.6606C31.3883 16.4517 31.4672 16.1822 31.4672 15.8478C31.4672 15.7695 31.4672 15.6914 31.3898 15.6914C31.3511 15.6914 31.3123 15.6914 31.2735 15.8868C31.2194 16.1598 31.0982 16.3901 30.9333 16.5588C30.6428 16.4012 30.4599 16.0821 30.4599 15.6523C30.4599 15.0659 30.9636 14.5576 31.971 14.5576C33.1334 14.5576 34.3345 15.0659 36.1944 17.1379L38.3254 19.4835C38.7516 19.9917 39.2166 20.3827 39.6816 20.7346C39.9915 20.9691 40.2627 21.1255 40.5727 21.321C40.1853 21.5555 39.914 21.7902 39.6816 22.0247C39.604 21.5555 39.2166 21.2037 38.7129 21.2037C38.3254 21.2037 38.0154 21.4382 37.8605 21.7119C37.7829 21.8683 37.6667 21.9856 37.5117 21.9856C37.3955 21.9856 37.318 21.9073 37.318 21.7902C37.318 21.7119 37.2792 21.6338 37.2018 21.6338C37.0855 21.6338 37.0468 21.751 37.0468 21.8292C37.0468 22.1029 37.2404 22.2983 37.5117 22.2983C37.6279 22.2983 37.7055 22.2593 37.7829 22.2201C37.7829 22.4157 38.0154 22.8066 38.4804 22.8066C38.6354 22.8066 38.7516 22.7675 38.7516 22.6502C38.7516 22.5329 38.6741 22.5329 38.5578 22.5329C38.2866 22.5329 38.1317 22.3765 38.1317 22.1029C38.1317 21.8292 38.3642 21.5555 38.7129 21.5555C39.1003 21.5555 39.3716 21.8292 39.3716 22.2983C39.3716 22.5329 39.2553 22.7284 39.2553 23.0412C39.2553 23.5103 39.4878 23.9012 39.8753 24.0185C38.0154 24.8395 37.1242 26.4815 37.1242 27.9671C37.1242 29.3354 37.5892 30.4301 38.7129 31.4856L39.604 32.3457C40.6502 33.323 41.5801 34.4177 41.5801 36.0205C41.5801 37.6626 40.379 38.8354 38.7903 38.8354ZM30.2274 46.107C29.9174 45.4815 29.5687 45.0905 29.4137 44.8951C29.8012 44.7387 30.0724 44.465 30.2274 44.1522C30.3824 44.465 30.6536 44.7387 31.0411 44.8951C30.8861 45.0905 30.5374 45.4815 30.2274 46.107ZM30.6192 16.78C30.4976 16.8346 30.3654 16.8641 30.2274 16.8641C30.0893 16.8641 29.9572 16.8346 29.8356 16.78C29.9869 16.6644 30.1269 16.4954 30.2274 16.2516C30.3279 16.4954 30.4679 16.6644 30.6192 16.78ZM42.2001 34.3395C41.9676 34.3395 41.7738 34.4567 41.6964 34.6131C41.3863 33.9095 41.0763 33.2449 39.7203 31.9938C39.7978 32.0329 40.069 32.072 40.2627 32.072C40.689 32.072 41.1539 31.9547 41.4251 31.6811C41.5026 31.9547 41.735 32.111 42.0064 32.111C42.4325 32.111 42.5875 31.8375 42.5875 31.5247C42.5875 31.4074 42.5488 31.2901 42.4325 31.2901C42.2001 31.2901 42.3937 31.7592 42.0064 31.7592C41.8513 31.7592 41.735 31.6419 41.735 31.4465C41.735 31.251 41.8513 31.0164 41.8513 30.7428C41.8513 30.1173 41.4638 29.6872 40.9989 29.5699C40.7276 29.4918 40.5727 29.2963 40.5727 29.0617C40.5727 28.749 40.8052 28.7099 40.9602 28.7099C41.1151 28.7099 41.2314 28.749 41.2314 28.6316C41.2314 28.5144 41.1151 28.4362 40.8827 28.4362C40.6114 28.4362 40.2239 28.6316 40.2239 29.0617C40.2239 29.2181 40.2627 29.3745 40.4177 29.5309C40.069 29.6091 39.759 29.8827 39.759 30.3128C39.759 30.5864 39.8365 30.86 40.0303 30.86C40.2627 30.86 40.069 30.6646 40.069 30.3518C40.069 30 40.379 29.8436 40.689 29.8436C41.1151 29.8436 41.5026 30.2346 41.5026 30.7428C41.5026 31.3291 41.0377 31.7201 40.3015 31.7201C39.8753 31.7201 39.2553 31.6419 38.7516 31.0556C37.9379 30.1564 37.473 29.3745 37.473 27.9671C37.473 26.1688 38.7516 24.605 40.6114 24.0967C40.9989 23.9795 41.3089 23.6275 41.3089 23.1584C41.3089 22.7675 41.0763 22.4548 40.689 22.4548C40.534 22.4548 40.4177 22.4938 40.4177 22.6111C40.4177 22.7284 40.534 22.7284 40.6114 22.7284C40.7664 22.7284 40.9602 22.8848 40.9602 23.1584C40.9602 23.5494 40.6502 23.7839 40.3015 23.7839C39.8753 23.7839 39.604 23.4711 39.604 23.0412C39.604 22.2201 40.5727 21.6729 41.3089 21.321C40.6502 21.0083 40.4177 20.891 39.914 20.5001C39.7978 20.3827 39.759 20.2654 39.759 20.1091C39.759 19.9136 39.8753 19.7572 40.0303 19.7572C40.1465 19.7572 40.2239 19.8354 40.2239 19.9527C40.2239 20.07 40.1465 20.07 40.1465 20.1481C40.1465 20.2264 40.1853 20.2654 40.2627 20.2654C40.3402 20.2654 40.534 20.1873 40.534 19.8745C40.534 19.6399 40.379 19.4054 40.0303 19.4054C39.6816 19.4054 39.4103 19.679 39.4103 20.07C39.1391 19.8354 38.8291 19.5618 38.5578 19.249L37.318 17.8807C36.9693 17.4897 37.163 16.747 37.6667 16.747C37.9379 16.747 38.0542 16.9424 38.0542 17.0988C38.0542 17.4506 37.7055 17.2942 37.7055 17.4897C37.7055 17.5679 37.7442 17.646 37.8605 17.646C38.1317 17.646 38.4028 17.4506 38.4028 17.0597C38.4028 16.7078 38.0929 16.395 37.6667 16.395C37.163 16.395 36.8143 16.786 36.8143 17.3333L36.4268 16.9033C34.722 15.0268 33.3271 14.2057 31.971 14.2057C31.4672 14.2057 31.0023 14.3621 30.7312 14.5576C30.4986 14.284 30.3824 14.0885 30.2274 13.8539C30.0724 14.0885 29.9562 14.284 29.7237 14.5576C29.4524 14.3621 28.9875 14.2057 28.4838 14.2057C27.1276 14.2057 25.7329 15.0268 24.028 16.9033L23.6405 17.3333C23.6405 16.786 23.2917 16.395 22.788 16.395C22.3619 16.395 22.0519 16.7078 22.0519 17.0597C22.0519 17.4506 22.3231 17.646 22.5943 17.646C22.7106 17.646 22.7493 17.5679 22.7493 17.4897C22.7493 17.2942 22.4007 17.4506 22.4007 17.0988C22.4007 16.9424 22.5168 16.747 22.788 16.747C23.2917 16.747 23.4855 17.4897 23.1368 17.8807L21.897 19.249C21.6257 19.5618 21.3157 19.8354 21.0445 20.07C21.0445 19.679 20.7732 19.4054 20.4245 19.4054C20.0759 19.4054 19.9208 19.6399 19.9208 19.8745C19.9208 20.1873 20.1145 20.2654 20.1921 20.2654C20.2695 20.2654 20.3083 20.2264 20.3083 20.1481C20.3083 20.07 20.2308 20.07 20.2308 19.9527C20.2308 19.8354 20.3083 19.7572 20.4245 19.7572C20.5795 19.7572 20.6958 19.9136 20.6958 20.1091C20.6958 20.2654 20.657 20.3827 20.5408 20.5001C20.0759 20.9691 19.8046 21.0083 19.1459 21.321C19.8821 21.6729 20.8508 22.2201 20.8508 23.0412C20.8508 23.4711 20.5795 23.7839 20.1533 23.7839C19.8046 23.7839 19.4946 23.5494 19.4946 23.1584C19.4946 22.8848 19.6884 22.7284 19.8433 22.7284C19.9208 22.7284 20.0371 22.7284 20.0371 22.6111C20.0371 22.4938 19.9208 22.4548 19.7658 22.4548C19.3784 22.4548 19.1459 22.7675 19.1459 23.1584C19.1459 23.6275 19.4558 23.9795 19.8433 24.0967C21.7032 24.644 22.9818 26.1688 22.9818 27.9671C22.9818 29.3745 22.4781 30.1173 21.7032 31.0556C21.1995 31.6419 20.5795 31.7201 20.1533 31.7201C19.4171 31.7201 18.9521 31.3291 18.9521 30.7428C18.9521 30.2346 19.3396 29.8436 19.7658 29.8436C20.0759 29.8436 20.3858 30 20.3858 30.3518C20.3858 30.6646 20.1921 30.86 20.4245 30.86C20.6182 30.86 20.6958 30.5864 20.6958 30.3128C20.6958 29.8827 20.3858 29.6091 20.0371 29.5309C20.1921 29.3745 20.2308 29.2181 20.2308 29.0617C20.2308 28.6316 19.8433 28.4362 19.5722 28.4362C19.3396 28.4362 19.2234 28.5144 19.2234 28.6316C19.2234 28.749 19.3396 28.7099 19.4946 28.7099C19.6496 28.7099 19.8821 28.749 19.8821 29.0617C19.8821 29.2963 19.7271 29.4918 19.4558 29.5699C18.9909 29.6872 18.6034 30.1173 18.6034 30.7428C18.6034 31.0164 18.7198 31.251 18.7198 31.4465C18.7198 31.6419 18.6034 31.7592 18.4484 31.7592C18.0611 31.7592 18.2547 31.2901 18.0223 31.2901C17.906 31.2901 17.8673 31.4074 17.8673 31.5247C17.8673 31.8375 18.0223 32.111 18.4484 32.111C18.7198 32.111 18.9521 31.9547 19.0297 31.6811C19.3009 31.9547 19.7658 32.072 20.1921 32.072C20.3858 32.072 20.657 32.0329 20.7346 31.9938C19.3784 33.2449 19.0684 33.9095 18.7584 34.6131C18.6809 34.4567 18.4872 34.3395 18.2547 34.3395C17.8673 34.3395 17.6736 34.5741 17.6736 34.9259C17.6736 35.0041 17.6736 35.2386 17.8673 35.2386C18.0223 35.2386 17.9448 35.0823 17.9448 34.9651C17.9448 34.8087 18.0611 34.6914 18.2547 34.6914C18.5647 34.6914 18.6422 34.9651 18.5647 35.395C18.526 35.5906 18.526 35.8251 18.526 36.0205C18.526 37.858 19.8821 39.1873 21.6644 39.1873C21.9356 39.1873 22.1681 39.1481 22.4393 39.109L22.9818 39.93C22.5943 40.0473 22.3231 40.3991 22.3231 40.7901C22.3231 41.2984 22.7106 41.6892 23.2143 41.6892C23.5243 41.6892 23.7567 41.5328 23.7567 41.3765C23.7567 41.2593 23.6792 41.2201 23.6017 41.2201C23.4855 41.2201 23.4855 41.3374 23.2143 41.3374C22.9043 41.3374 22.6719 41.1029 22.6719 40.7901C22.6719 40.4774 22.943 40.2428 23.3305 40.2428C24.0667 40.2428 24.4154 41.1029 24.9191 41.9629L25.4228 42.8231C26.2366 44.2305 27.5539 45.0514 28.6388 45.0514C28.7938 45.0514 28.9487 45.0514 29.1037 45.0124C29.5687 45.4815 30.0337 46.3416 30.2274 46.7325C30.4211 46.3416 30.8861 45.4815 31.3511 45.0124C31.5061 45.0514 31.661 45.0514 31.816 45.0514C32.9008 45.0514 34.2183 44.2305 35.032 42.8231L35.5357 41.9629C36.0394 41.1029 36.3881 40.2428 37.1242 40.2428C37.5117 40.2428 37.7829 40.4774 37.7829 40.7901C37.7829 41.1029 37.5505 41.3374 37.2404 41.3374C36.9693 41.3374 36.9693 41.2201 36.853 41.2201C36.7755 41.2201 36.6981 41.2593 36.6981 41.3765C36.6981 41.5328 36.9305 41.6892 37.2404 41.6892C37.7442 41.6892 38.1317 41.2984 38.1317 40.7901C38.1317 40.3991 37.8605 40.0473 37.473 39.93L38.0154 39.109C38.2866 39.1481 38.5192 39.1873 38.7903 39.1873C40.5727 39.1873 41.9288 37.858 41.9288 36.0205C41.9288 35.8251 41.9288 35.5906 41.89 35.395C41.8126 34.9651 41.89 34.6914 42.2001 34.6914C42.3937 34.6914 42.51 34.8087 42.51 34.9651C42.51 35.0823 42.4325 35.2386 42.5875 35.2386C42.7812 35.2386 42.7812 35.0041 42.7812 34.9259C42.7812 34.5741 42.5875 34.3395 42.2001 34.3395ZM41.1927 41.0637C39.4878 42.8231 36.9693 44.0741 34.5669 45.2469C32.9784 46.0288 31.4285 46.8107 30.2274 47.7489C29.0263 46.8107 27.4764 46.0288 25.8878 45.2469C23.4855 44.0741 20.967 42.8231 19.2621 41.0637C17.0923 38.8354 16.0462 36.5679 16.0462 33.9876C16.0462 31.7983 16.8987 29.9609 18.8359 27.498C18.9909 27.3025 19.1459 27.1071 19.1459 26.9506C19.1459 26.7943 18.9909 26.4815 18.9134 26.3252L17.5574 23.3539C17.2473 22.6892 16.9373 22.0638 16.9373 21.3992C16.9373 20.8519 17.2861 20.4609 17.751 20.07L19.6884 18.3107C19.7658 18.2325 19.7658 18.1152 19.7271 18.037L19.1071 16.747C19.0297 16.5906 19.0297 16.4733 19.1459 16.395C21.0445 15.1049 22.6331 14.714 24.9191 14.0885C27.0889 13.5021 29.0263 12.9938 30.2274 12.212C31.4285 12.9938 33.3659 13.5021 35.5357 14.0885C37.8217 14.714 39.3716 15.1832 41.3089 16.395C41.4251 16.4733 41.4251 16.5906 41.3477 16.747L40.7276 18.037C40.689 18.1152 40.689 18.2325 40.7664 18.3107L42.7038 20.07C43.1687 20.4609 43.5175 20.8519 43.5175 21.3992C43.5175 22.0638 43.2075 22.6892 42.8974 23.3539L41.5414 26.3252C41.4638 26.4815 41.3089 26.7943 41.3089 26.9506C41.3089 27.1071 41.4638 27.3025 41.6189 27.498C43.7112 29.8436 44.4086 31.7983 44.4086 33.9876C44.4086 36.5679 43.3625 38.8354 41.1927 41.0637ZM43.0137 27.6152C42.665 27.1852 42.4713 26.9897 42.4713 26.8334C42.4713 26.6769 42.5875 26.4424 42.7038 26.1688L43.8662 23.5885C44.2149 22.8066 44.5249 22.142 44.5249 21.321C44.5249 20.7346 44.2924 20.1481 43.7112 19.6399L42.0451 18.1934C41.89 18.0761 41.89 17.8807 41.9676 17.7243L42.5875 16.3169C42.6262 16.2387 42.6262 16.1214 42.51 16.0432C40.6114 14.7531 38.4416 13.9712 36.3881 13.3847C34.3345 12.8375 31.5835 12.0556 30.2274 11C28.8713 12.0556 26.1203 12.7983 24.0667 13.3847C22.0132 13.9712 19.8433 14.7531 17.9448 16.0432C17.8285 16.1214 17.8285 16.2387 17.8673 16.3169L18.4872 17.7243C18.5647 17.8807 18.5647 18.0761 18.4098 18.1934L16.7437 19.6399C16.1624 20.1481 15.9299 20.7346 15.9299 21.321C15.9299 22.142 16.24 22.8066 16.5886 23.5885L17.751 26.1688C17.8673 26.4424 17.9835 26.6769 17.9835 26.8334C17.9835 26.9897 17.7897 27.1852 17.441 27.6152C15.6975 29.8045 15 31.6028 15 33.9876C15 37.3107 16.6274 39.8519 18.4872 41.7675C20.3858 43.7222 23.0206 45.0124 25.4228 46.1851C27.0115 46.967 28.6775 47.7489 30.2274 49C31.7772 47.7489 33.4433 46.967 35.032 46.1851C37.4342 45.0124 40.1077 43.7222 41.9676 41.7675C43.8274 39.8519 45.4547 37.3107 45.4547 33.9876C45.4547 31.6028 44.7573 29.8045 43.0137 27.6152Z" fill="white"/>
</svg>
