<svg width="60" height="60" viewBox="0 0 60 60" fill="none" xmlns="http://www.w3.org/2000/svg">
<rect width="60" height="60" rx="30" fill="#EA1D25"/>
<path d="M39.3782 28.4096C39.2849 26.9639 38.9119 25.5181 38.1658 24.2651L31.8238 12.7952C31.3575 11.9277 30.9844 10.9639 30.7979 10L30.5181 10.4819C28.9326 13.2771 28.9326 16.8434 30.5181 19.6386L35.6476 28.7952C37.2331 31.5904 37.2331 35.1566 35.6476 37.9518L35.3678 38.4337C35.1813 37.4699 34.8083 36.506 34.3419 35.6386L29.6787 27.253L26.6943 21.8554C26.228 20.988 25.8549 20.0241 25.6684 19.0602L25.3886 19.5422C23.8031 22.3374 23.8031 25.8072 25.3886 28.6988L30.5181 37.8554C32.1036 40.6506 32.1036 44.2169 30.5181 47.012L30.2383 47.494C30.0518 46.5301 29.6787 45.5663 29.2124 44.6988L22.7772 33.2289C21.9378 31.6867 21.5648 29.9518 21.5648 28.2169C14.7565 30.0482 10 34 10 38.5301C10 44.8916 19.1399 50 30.4248 50C41.7098 50 50.8497 44.8916 50.8497 38.5301C50.943 34.1928 46.2797 30.241 39.3782 28.4096Z" fill="white"/>
</svg>
