<svg width="60" height="60" viewBox="0 0 60 60" fill="none" xmlns="http://www.w3.org/2000/svg">
<rect width="60" height="60" rx="30" fill="#D52B1E"/>
<path d="M29.5013 47.0003C39.1651 47.0003 46.9991 39.1652 46.9991 29.5002C46.9991 19.8351 39.1651 12 29.5013 12C19.8375 12 12.0035 19.8351 12.0035 29.5002C12.0035 39.1652 19.8375 47.0003 29.5013 47.0003Z" fill="#D52B1E"/>
<path fill-rule="evenodd" clip-rule="evenodd" d="M42.7984 30.7376H37.4939C37.695 31.8895 38.7932 32.3316 39.7444 32.3316C40.3471 32.3316 40.8829 32.1976 41.4054 31.9567L41.2581 33.5371C40.6686 33.7781 39.9588 33.8719 39.2489 33.8719C36.8914 33.8719 35.2304 32.4924 35.2304 30.1483C35.2304 28.1123 36.7171 26.5853 38.9942 26.5853C41.566 26.5853 42.8519 28.2195 42.7984 30.7376ZM33.2076 33.7381C33.1004 33.4835 32.9396 33.0683 32.8057 32.6531L32.4977 31.6216C32.3369 31.0727 32.1226 30.8448 31.6001 30.8448H30.7161V33.7381H28.6667V24.2814H30.7161V29.4919H30.9439L32.886 26.7193H35.1631L32.8726 29.6124H32.9932C33.904 29.6124 34.1719 30.1215 34.3997 30.8716L34.7882 32.1709C34.922 32.6531 35.2034 33.3362 35.4175 33.7381H33.2076ZM26.644 32.1709C27.1798 32.1709 27.6218 32.0235 27.9567 31.8629L27.7693 33.564C27.3406 33.7781 26.7377 33.8853 26.2154 33.8853C24.0051 33.8853 22.4783 32.4522 22.4783 30.2153C22.4783 28.0052 23.9785 26.5853 26.2019 26.5853C27.019 26.5853 27.6486 26.746 28.2914 27.0406L27.7021 28.6212C27.394 28.4337 26.9655 28.2865 26.51 28.2865C25.3849 28.2865 24.6482 29.0231 24.6482 30.2153C24.6482 31.394 25.425 32.1842 26.644 32.1709ZM19.759 25.8218H21.8485V24.2814H19.759V25.8218ZM19.759 33.7381H21.8485V26.7193H19.759V33.7381ZM43.2408 29.9474V25.1788L45.3303 24.335V26.8532H46.7367L46.4554 28.4203H45.3035V30.0277C45.3035 31.589 45.8953 32.6886 46.5227 33.5715C46.8342 32.2649 47 30.9018 47 29.4998C46.9999 19.8349 39.1648 12 29.4999 12C21.6526 12 15.0117 17.1652 12.7914 24.2814H19.3033L19.0489 26.1566H16.3297V33.7381H14.1061V26.1566H12.3203C12.111 27.2389 12 28.3563 12 29.4998C12.0002 39.1648 19.835 46.9997 29.5001 46.9997C37.7034 46.9997 44.5872 41.3551 46.4822 33.7381H44.4195C44.0578 33.1085 43.2274 31.9699 43.2408 29.9474ZM39.0612 28.0319C38.1772 28.0319 37.6147 28.6078 37.4404 29.3714H40.5883C40.4811 28.5276 39.8918 28.0319 39.0612 28.0319Z" fill="white"/>
</svg>
