<svg width="60" height="60" viewBox="0 0 60 60" fill="none" xmlns="http://www.w3.org/2000/svg">
<rect width="60" height="60" rx="30" fill="#172B85"/>
<path fill-rule="evenodd" clip-rule="evenodd" d="M17.2505 37.5165H13.0099L9.82991 25.3847C9.67897 24.8267 9.3585 24.3333 8.88708 24.1008C7.71062 23.5165 6.41424 23.0514 5 22.8169V22.3498H11.8313C12.7742 22.3498 13.4813 23.0514 13.5991 23.8663L15.2491 32.6173L19.4877 22.3498H23.6104L17.2505 37.5165ZM25.9675 37.5165H21.9626L25.2604 22.3498H29.2653L25.9675 37.5165ZM34.4467 26.5514C34.5646 25.7346 35.2717 25.2675 36.0967 25.2675C37.3931 25.1502 38.8052 25.3848 39.9838 25.9671L40.6909 22.7016C39.5123 22.2345 38.216 22 37.0395 22C33.1524 22 30.3239 24.1008 30.3239 27.0165C30.3239 29.2346 32.3274 30.3992 33.7417 31.1008C35.2717 31.8004 35.861 32.2675 35.7431 32.9671C35.7431 34.0165 34.5646 34.4836 33.3881 34.4836C31.9739 34.4836 30.5596 34.1338 29.2653 33.5494L28.5582 36.8169C29.9724 37.3992 31.5025 37.6338 32.9167 37.6338C37.2752 37.749 39.9838 35.6502 39.9838 32.5C39.9838 28.5329 34.4467 28.3004 34.4467 26.5514V26.5514ZM54 37.5165L50.82 22.3498H47.4044C46.6972 22.3498 45.9901 22.8169 45.7544 23.5165L39.8659 37.5165H43.9887L44.8116 35.3004H49.8772L50.3486 37.5165H54ZM47.9936 26.4342L49.1701 32.1502H45.8723L47.9936 26.4342Z" fill="white"/>
</svg>
