<svg width="60" height="60" viewBox="0 0 60 60" fill="none" xmlns="http://www.w3.org/2000/svg">
<rect width="60" height="60" rx="30" fill="#02D72F"/>
<path d="M45.8985 46.354H18.0367C15.2404 46.354 12.9731 44.1016 12.9731 41.3238V13.646H40.8338C43.6301 13.646 45.8974 15.8983 45.8974 18.6761V46.354H45.8985Z" fill="#00BE28"/>
<path d="M28.2777 38.6321H22.0924C20.9673 38.6321 20.3203 38.1584 19.9106 37.1259L16.0251 27.2055H20.1827C21.3077 27.2055 21.9894 27.6964 22.3471 28.7462L24.0682 33.7914H24.7499L28.618 23.2283H36.0823C39.763 23.2283 41.8082 24.9553 41.8082 28.0528C41.8082 29.7292 40.9736 31.117 39.4389 31.9633C39.66 32.4036 39.9332 33.0464 40.3418 34.1306C41.4494 37.0419 42.1138 37.9398 42.8129 38.6332H38.8764C37.1044 38.6332 36.0303 37.8548 35.3833 36.1784L32.9804 29.8982C33.2698 29.9661 33.6275 29.9833 33.9689 29.9833C35.4515 29.9833 36.2698 29.4751 36.2698 28.5449C36.2698 27.648 35.6055 27.2076 34.242 27.2076H32.6737L28.2777 38.6321Z" fill="white"/>
</svg>
